<?xml version="1.0" encoding="utf-8"?>
<!-- Generator: Adobe Illustrator 13.0.0, SVG Export Plug-In . SVG Version: 6.00 Build 14948)  -->
<!DOCTYPE svg PUBLIC "-//W3C//DTD SVG 1.1//EN" "http://www.w3.org/Graphics/SVG/1.1/DTD/svg11.dtd" [
	<!ENTITY ns_flows "http://ns.adobe.com/Flows/1.0/">
	<!ENTITY ns_extend "http://ns.adobe.com/Extensibility/1.0/">
	<!ENTITY ns_ai "http://ns.adobe.com/AdobeIllustrator/10.0/">
	<!ENTITY ns_graphs "http://ns.adobe.com/Graphs/1.0/">
]>
<svg version="1.1" id="Calque_1" xmlns:x="&ns_extend;" xmlns:i="&ns_ai;" xmlns:graph="&ns_graphs;"
	 xmlns="http://www.w3.org/2000/svg" xmlns:xlink="http://www.w3.org/1999/xlink" xmlns:a="http://ns.adobe.com/AdobeSVGViewerExtensions/3.0/"
	 x="0px" y="0px" width="164.5px" height="56.4px" viewBox="-37.9 -17.6 164.5 56.4"
	 enable-background="new -37.9 -17.6 164.5 56.4" xml:space="preserve">
<g>
	<path fill="#FFFFFF" stroke="#FFFFFF" d="M-9.9,6.2c0,4.5-1.1,8.2-3.3,11c-2.2,2.8-5.2,4.2-9.1,4.2c-1.5,0-2.8-0.4-4-1.1
		c-1.2-0.7-2.2-1.7-2.9-3v12.1h-2.1c-1.3,0-2.4-0.4-3.4-1.3c-1-0.9-1.4-2-1.4-3.4V8.1c0-4.8,1.1-8.6,3.4-11.3
		C-30.4-6-27-7.3-22.3-7.3c3.5,0,6.5,1.4,8.9,4.1C-11.1-0.6-9.9,2.6-9.9,6.2z M-17,8c0-3.2-0.5-5.5-1.6-7s-2.7-2.2-4.9-2.2
		c-1.8,0-3.3,0.7-4.3,2.2s-1.6,3.4-1.6,5.8c0,2.7,0.6,4.8,1.8,6.3c1.2,1.5,2.9,2.3,4.9,2.3c1.7,0,3-0.7,4.1-2
		C-17.5,11.9-17,10.1-17,8z"/>
	<path fill="#FFFFFF" stroke="#FFFFFF" d="M11.3-0.1H11C9.7-0.6,8.3-0.9,7-0.9c-3.2,0-4.7,2-4.7,5.9v15.8H0.4
		c-1.6,0-2.8-0.4-3.7-1.1c-0.9-0.8-1.3-1.8-1.3-3.2V3.7c0-3,0.8-5.6,2.5-7.6C-0.4-6,2.2-7,5.6-7C7.5-7,9-6.6,9.9-5.7
		c0.9,0.9,1.4,1.9,1.4,3.2V-0.1z"/>
	<path fill="#FFFFFF" stroke="#FFFFFF" d="M13.8,7.5c0-4.3,1.2-7.9,3.6-10.7c2.4-2.8,5.7-4.2,10-4.2c4,0,7.1,1.4,9.5,4.1
		c2.3,2.7,3.5,6,3.5,9.8c0,4.3-1.2,7.9-3.6,10.7c-2.4,2.8-5.7,4.2-10,4.2c-4,0-7.1-1.4-9.5-4.1C15,14.6,13.8,11.3,13.8,7.5z
		 M33.4,7.5c0-5.8-2.2-8.8-6.5-8.8c-1.9,0-3.4,0.7-4.4,2.1c-1,1.4-1.5,3.3-1.5,5.7c0,5.8,2.2,8.7,6.5,8.7c1.9,0,3.4-0.7,4.4-2.1
		C32.9,11.7,33.4,9.8,33.4,7.5z"/>
	<path fill="#FFFFFF" stroke="#FFFFFF" d="M61.8-9.8h-0.2c-1.2-0.4-2.6-0.6-4-0.6c-3.3,0-4.9,1.5-4.9,4.6v2.4h7.9v1.9
		c0,1.2-0.5,2.1-1.5,2.8c-1,0.7-2.1,1.1-3.4,1.1h-3v18.4h-2.8c-1.1,0-2.1-0.4-2.9-1.2c-0.8-0.8-1.2-1.8-1.2-2.9V-6.4
		c0-1.1,0.2-2.1,0.6-3.2c0.4-1.1,1-2.2,1.8-3.2c0.8-1.1,1.9-1.9,3.3-2.6c1.4-0.7,3.1-1,5-1c1.5,0,2.8,0.4,3.8,1.2
		c1,0.8,1.5,1.8,1.5,3.2V-9.8L61.8-9.8z"/>
	<path fill="#FFFFFF" stroke="#FFFFFF" d="M78.1,16.9c0,2.8-1.5,4.1-4.6,4.1c-2.8,0-5-0.7-6.5-2.2s-2.2-3.6-2.2-6.4V-16h1.9
		c1.6,0,2.9,0.4,3.7,1.2c0.8,0.8,1.2,1.9,1.2,3.3v23.2c0,1.4,0.4,2.3,1.1,2.8c0.7,0.5,1.9,0.8,3.6,0.8h1.8V16.9z"/>
	<path fill="#FFFFFF" stroke="#FFFFFF" d="M102.8,11.4c0,2.9-1,5.3-2.9,7.1c-1.9,1.8-4.4,2.8-7.5,2.8H91c-3.2,0-5.9-0.8-7.9-2.4
		C81,17.1,80,15,80,12.5c0-2.7,1.1-4.8,3.2-6.3c2.2-1.5,5.6-2.3,10.4-2.3H96V3.5c0-1.9-0.5-3.2-1.4-4c-0.9-0.7-2.4-1.1-4.5-1.1
		c-2.2,0-4.1,0.3-5.5,1c-1.5,0.6-2.5,1.4-3.2,2.2h-0.3v-2.2c0-1.8,0.8-3.3,2.5-4.7c1.7-1.4,4.2-2,7.5-2c1.6,0,3.1,0.2,4.4,0.6
		c1.3,0.4,2.5,1.1,3.6,2c1.1,0.9,2,2.2,2.6,3.9c0.6,1.7,0.9,3.6,0.9,5.9v6.3H102.8z M96.1,11.4V8.8h-2.4c-2.5,0-4.2,0.3-5.2,0.8
		c-1,0.6-1.5,1.4-1.5,2.6c0,1.1,0.4,1.9,1.3,2.5c0.8,0.6,2,0.9,3.5,0.9C94.6,15.7,96.1,14.2,96.1,11.4z"/>
	<path fill="#FFFFFF" stroke="#FFFFFF" d="M108.4-5.7c0-1.3,0.1-2.3,0.4-3c0.3-0.7,0.8-1.5,1.6-2.4c1.1-1.3,2.2-1.9,3.2-1.9h1.6v6.2
		h9.5V-4c0,0.8-0.4,1.6-1.1,2.2c-0.7,0.7-1.7,1-3,1h-5.5V10c0,3.3,1.4,4.9,4.3,4.9c2.2,0,3.9-0.3,4.9-1h0.3v2.4
		c0,1.4-0.5,2.6-1.6,3.4c-1,0.8-2.5,1.2-4.5,1.2c-3.4,0-6-0.9-7.7-2.7s-2.6-4.3-2.6-7.5V-5.7H108.4z"/>
</g>
<g>
	<path fill="#FFFFFF" d="M-23.5,30.6h1.3v0.8c0.2-0.3,0.4-0.5,0.7-0.6c0.3-0.1,0.6-0.2,0.9-0.2c0.6,0,1.1,0.2,1.5,0.7s0.6,1.1,0.6,2
		c0,0.9-0.2,1.5-0.6,2S-20,36-20.6,36c-0.3,0-0.5-0.1-0.8-0.2c-0.3-0.1-0.5-0.3-0.7-0.6v2.6h-1.4V30.6z M-22.1,33.2
		c0,0.6,0.1,1,0.3,1.3c0.2,0.3,0.5,0.4,0.8,0.4s0.6-0.1,0.8-0.4c0.2-0.3,0.3-0.7,0.3-1.3c0-0.5-0.1-0.9-0.3-1.2
		c-0.2-0.3-0.5-0.4-0.8-0.4s-0.6,0.1-0.8,0.4C-22,32.3-22.1,32.6-22.1,33.2z"/>
	<path fill="#FFFFFF" d="M-17.6,33.2c0-0.5,0.1-0.9,0.3-1.3c0.2-0.4,0.5-0.8,1-1s0.9-0.3,1.4-0.3c0.8,0,1.4,0.3,1.9,0.8
		s0.8,1.2,0.8,1.9c0,0.8-0.3,1.4-0.8,2c-0.5,0.5-1.1,0.8-1.9,0.8c-0.5,0-0.9-0.1-1.4-0.3c-0.5-0.2-0.8-0.5-1-0.9
		C-17.5,34.3-17.6,33.8-17.6,33.2z M-16.2,33.2c0,0.5,0.1,0.9,0.4,1.2c0.3,0.3,0.5,0.4,0.9,0.4s0.7-0.1,0.9-0.4s0.4-0.7,0.4-1.2
		s-0.1-0.9-0.4-1.2s-0.5-0.4-0.9-0.4s-0.7,0.1-0.9,0.4C-16,32.3-16.2,32.7-16.2,33.2z"/>
	<path fill="#FFFFFF" d="M-7.8,35.8V35c-0.2,0.3-0.4,0.5-0.7,0.7s-0.6,0.2-1,0.2c-0.3,0-0.7-0.1-0.9-0.2c-0.2-0.1-0.5-0.4-0.6-0.6
		c-0.1-0.2-0.2-0.7-0.2-1.1v-3.3h1.4V33c0,0.7,0,1.2,0.1,1.3c0.1,0.2,0.1,0.3,0.3,0.4c0.1,0.1,0.3,0.1,0.5,0.1
		c0.2,0,0.4-0.1,0.6-0.2c0.2-0.1,0.3-0.3,0.4-0.5c0.1-0.2,0.1-0.7,0.1-1.4v-2.2h1.4v5.2L-7.8,35.8L-7.8,35.8z"/>
	<path fill="#FFFFFF" d="M-3.8,35.8h-1.4v-5.2h1.3v0.7c0.2-0.3,0.4-0.6,0.6-0.7c0.2-0.1,0.4-0.2,0.6-0.2c0.3,0,0.6,0.1,0.9,0.3
		L-2.2,32c-0.2-0.1-0.4-0.2-0.6-0.2c-0.2,0-0.4,0.1-0.5,0.2c-0.1,0.1-0.2,0.3-0.3,0.6c-0.1,0.3-0.1,0.9-0.1,1.7L-3.8,35.8L-3.8,35.8
		z"/>
	<path fill="#FFFFFF" d="M1.5,30.6h1.3v0.8c0.2-0.3,0.4-0.5,0.7-0.6c0.3-0.1,0.6-0.2,0.9-0.2c0.6,0,1.1,0.2,1.5,0.7s0.6,1.1,0.6,2
		c0,0.9-0.2,1.5-0.6,2C5.5,35.7,5,36,4.4,36c-0.3,0-0.5-0.1-0.8-0.2c-0.3-0.1-0.5-0.3-0.7-0.6v2.6H1.5V30.6z M2.9,33.2
		c0,0.6,0.1,1,0.3,1.3c0.2,0.3,0.5,0.4,0.8,0.4s0.6-0.1,0.8-0.4c0.2-0.3,0.3-0.7,0.3-1.3c0-0.5-0.1-0.9-0.3-1.2
		c-0.2-0.3-0.5-0.4-0.8-0.4S3.4,31.7,3.2,32C3,32.3,2.9,32.6,2.9,33.2z"/>
	<path fill="#FFFFFF" d="M9,28.7v2.6c0.4-0.5,1-0.8,1.6-0.8c0.3,0,0.6,0.1,0.9,0.2s0.4,0.3,0.6,0.4c0.2,0.1,0.2,0.4,0.3,0.6
		s0.1,0.6,0.1,1v3H11V33c0-0.5,0-0.9-0.1-1c-0.1-0.1-0.1-0.3-0.3-0.3c-0.1-0.1-0.3-0.1-0.5-0.1c-0.2,0-0.4,0.1-0.6,0.2
		c-0.2,0.1-0.2,0.2-0.3,0.4c-0.1,0.2-0.1,0.6-0.1,1v2.6H7.7v-7.2L9,28.7L9,28.7z"/>
	<path fill="#FFFFFF" d="M13.7,30.6H15v0.8c0.2-0.3,0.4-0.5,0.7-0.6c0.3-0.1,0.6-0.2,0.9-0.2c0.6,0,1.1,0.2,1.5,0.7s0.6,1.1,0.6,2
		c0,0.9-0.2,1.5-0.6,2S17.2,36,16.6,36c-0.3,0-0.5-0.1-0.8-0.2c-0.3-0.1-0.5-0.3-0.7-0.6v2.6h-1.4V30.6z M15.1,33.2
		c0,0.6,0.1,1,0.3,1.3c0.2,0.3,0.5,0.4,0.8,0.4c0.3,0,0.6-0.1,0.8-0.4s0.3-0.7,0.3-1.3c0-0.5-0.1-0.9-0.3-1.2s-0.5-0.4-0.8-0.4
		c-0.3,0-0.6,0.1-0.8,0.4C15.2,32.3,15.1,32.6,15.1,33.2z"/>
	<path fill="#FFFFFF" d="M19.9,28.7h2.9c0.6,0,1,0,1.3,0.1c0.3,0,0.5,0.1,0.7,0.3c0.2,0.2,0.4,0.3,0.5,0.6c0.1,0.2,0.2,0.5,0.2,0.8
		s-0.1,0.6-0.3,0.9c-0.2,0.3-0.4,0.5-0.7,0.6c0.4,0.1,0.8,0.3,1,0.6c0.2,0.3,0.4,0.7,0.4,1.1c0,0.3-0.1,0.6-0.2,1
		c-0.2,0.3-0.4,0.6-0.6,0.7c-0.3,0.2-0.6,0.3-1,0.3c-0.2,0-0.8,0-1.7,0H20v-7H19.9z M21.4,29.9v1.7h0.9c0.6,0,0.9,0,1,0
		c0.2,0,0.4-0.1,0.6-0.3c0.1-0.1,0.2-0.3,0.2-0.6c0-0.2-0.1-0.4-0.2-0.5s-0.3-0.2-0.5-0.3c-0.1,0-0.6,0-1.2,0H21.4z M21.4,32.7v1.9
		h1.3c0.5,0,0.9,0,1,0c0.2,0,0.4-0.1,0.5-0.3c0.1-0.2,0.2-0.4,0.2-0.6s-0.1-0.4-0.2-0.5c-0.1-0.1-0.3-0.3-0.5-0.3
		c-0.2,0-0.6-0.1-1.3-0.1L21.4,32.7L21.4,32.7z"/>
	<path fill="#FFFFFF" d="M27.1,28.7H30c0.6,0,1,0,1.3,0.1c0.3,0,0.5,0.1,0.7,0.3c0.2,0.2,0.4,0.3,0.5,0.6c0.1,0.2,0.2,0.5,0.2,0.8
		s-0.1,0.6-0.3,0.9c-0.2,0.3-0.4,0.5-0.7,0.6c0.4,0.1,0.8,0.3,1,0.6c0.2,0.3,0.4,0.7,0.4,1.1c0,0.3-0.1,0.6-0.2,1
		c-0.2,0.3-0.4,0.6-0.6,0.7c-0.3,0.2-0.6,0.3-1,0.3c-0.2,0-0.8,0-1.7,0h-2.4v-7H27.1z M28.6,29.9v1.7h0.9c0.6,0,0.9,0,1,0
		c0.2,0,0.4-0.1,0.6-0.3c0.1-0.1,0.2-0.3,0.2-0.6c0-0.2-0.1-0.4-0.2-0.5s-0.3-0.2-0.5-0.3c-0.1,0-0.6,0-1.2,0H28.6z M28.6,32.7v1.9
		h1.3c0.5,0,0.9,0,1,0c0.2,0,0.4-0.1,0.5-0.3c0.1-0.2,0.2-0.4,0.2-0.6s-0.1-0.4-0.2-0.5s-0.3-0.3-0.5-0.3c-0.2,0-0.6-0.1-1.3-0.1
		L28.6,32.7L28.6,32.7z"/>
	<path fill="#FFFFFF" d="M42.7,35.8v-1.4h1.4v1.4H42.7z"/>
	<path fill="#FFFFFF" d="M49.8,34.6v1.3H45c0.1-0.5,0.2-0.9,0.5-1.4c0.3-0.4,0.8-1,1.5-1.7c0.6-0.6,1-1,1.1-1.2
		c0.2-0.3,0.3-0.6,0.3-0.8c0-0.3-0.1-0.5-0.2-0.7c-0.2-0.2-0.4-0.2-0.7-0.2S47,30,46.8,30.2c-0.2,0.2-0.3,0.5-0.3,0.9L45.1,31
		c0.1-0.8,0.3-1.3,0.8-1.6s1-0.5,1.6-0.5c0.7,0,1.3,0.2,1.7,0.6c0.4,0.4,0.6,0.9,0.6,1.4c0,0.3-0.1,0.6-0.2,0.9
		c-0.1,0.3-0.3,0.6-0.5,0.9c-0.2,0.2-0.5,0.5-0.9,0.9c-0.4,0.4-0.7,0.7-0.8,0.8c-0.1,0.1-0.2,0.3-0.3,0.4h2.7V34.6L49.8,34.6z"/>
	<path fill="#FFFFFF" d="M51,35.8v-1.4h1.4v1.4H51z"/>
	<path display="none" fill="#FFFFFF" d="M58.5,34.6v1.3h-4.8c0.1-0.5,0.2-0.9,0.5-1.4c0.3-0.4,0.8-1,1.5-1.7c0.6-0.6,1-1,1.1-1.2
		c0.2-0.3,0.3-0.6,0.3-0.8c0-0.3-0.1-0.5-0.2-0.7c-0.2-0.2-0.4-0.2-0.7-0.2c-0.3,0-0.5,0.1-0.7,0.3s-0.3,0.5-0.3,0.9L53.8,31
		c0.1-0.8,0.3-1.3,0.8-1.6s1-0.5,1.6-0.5c0.7,0,1.3,0.2,1.7,0.6c0.4,0.4,0.6,0.9,0.6,1.4c0,0.3-0.1,0.6-0.2,0.9
		c-0.1,0.3-0.3,0.6-0.5,0.9c-0.2,0.2-0.5,0.5-0.9,0.9c-0.4,0.4-0.7,0.7-0.8,0.8c-0.1,0.1-0.2,0.3-0.3,0.4h2.7V34.6L58.5,34.6z"/>
	<path fill="#FFFFFF" d="M36.8,33.9l1.3-0.2c0,0.3,0.2,0.6,0.3,0.8s0.4,0.3,0.7,0.3c0.3,0,0.5-0.1,0.7-0.3c0.2-0.2,0.3-0.5,0.3-0.9
		c0-0.3-0.1-0.6-0.3-0.8c-0.2-0.2-0.4-0.3-0.7-0.3c-0.2,0-0.4,0-0.6,0.1l0.2-1.1c0.4,0,0.7-0.1,0.8-0.2c0.2-0.2,0.3-0.4,0.3-0.7
		c0-0.2-0.1-0.4-0.2-0.6s-0.3-0.2-0.6-0.2c-0.2,0-0.4,0.1-0.6,0.2c-0.2,0.1-0.3,0.4-0.3,0.7l-1.3-0.2c0.1-0.4,0.2-0.8,0.4-1
		c0.2-0.3,0.4-0.5,0.7-0.6c0.3-0.1,0.7-0.2,1.1-0.2c0.7,0,1.2,0.2,1.6,0.6c0.3,0.4,0.5,0.7,0.5,1.2c0,0.6-0.3,1.1-1,1.5
		c0.4,0.1,0.7,0.3,1,0.6c0.3,0.3,0.4,0.7,0.4,1.1c0,0.6-0.2,1.2-0.7,1.6c-0.5,0.4-1,0.7-1.7,0.7c-0.6,0-1.2-0.2-1.6-0.6
		C37.1,35,36.8,34.5,36.8,33.9z"/>
</g>
<path fill="#FFFFFF" d="M53.9,34l1.3-0.2c0,0.3,0.2,0.6,0.3,0.8s0.4,0.3,0.7,0.3c0.3,0,0.5-0.1,0.7-0.3c0.2-0.2,0.3-0.5,0.3-0.9
	c0-0.3-0.1-0.6-0.3-0.8c-0.2-0.2-0.4-0.3-0.7-0.3c-0.2,0-0.4,0-0.6,0.1l0.2-1.1c0.4,0,0.7-0.1,0.8-0.2c0.2-0.2,0.3-0.4,0.3-0.7
	c0-0.2-0.1-0.4-0.2-0.6s-0.3-0.2-0.6-0.2c-0.2,0-0.4,0.1-0.6,0.2c-0.2,0.1-0.3,0.4-0.3,0.7l-1.3-0.2c0.1-0.4,0.2-0.8,0.4-1
	c0.2-0.3,0.4-0.5,0.7-0.6c0.3-0.1,0.7-0.2,1.1-0.2c0.7,0,1.2,0.2,1.6,0.6c0.3,0.4,0.5,0.7,0.5,1.2c0,0.6-0.3,1.1-1,1.5
	c0.4,0.1,0.7,0.3,1,0.6c0.3,0.3,0.4,0.7,0.4,1.1c0,0.6-0.2,1.2-0.7,1.6c-0.5,0.4-1,0.7-1.7,0.7c-0.6,0-1.2-0.2-1.6-0.6
	C54.2,35.1,53.9,34.6,53.9,34z"/>
</svg>
